<?xml version="1.0" standalone="no"?>
<!DOCTYPE svg PUBLIC "-//W3C//DTD SVG 20010904//EN"
 "http://www.w3.org/TR/2001/REC-SVG-20010904/DTD/svg10.dtd">
<svg version="1.0" xmlns="http://www.w3.org/2000/svg"
 width="3000.000000pt" height="3000.000000pt" viewBox="0 0 3000.000000 3000.000000"
 preserveAspectRatio="xMidYMid meet">
<metadata>
Created by potrace 1.16, written by Peter Selinger 2001-2019
</metadata>
<g transform="translate(0.000000,3000.000000) scale(0.100000,-0.100000)"
fill="#000000" stroke="none">
<path d="M14500 29439 c-740 -32 -1524 -132 -2224 -285 -251 -54 -872 -200
-1088 -255 -1486 -377 -2909 -1022 -4173 -1891 -262 -181 -771 -550 -978 -711
-936 -727 -1780 -1588 -2492 -2542 -656 -879 -1039 -1482 -1426 -2240 -433
-850 -768 -1733 -1004 -2650 -62 -241 -238 -991 -289 -1235 -129 -611 -214
-1257 -258 -1960 -16 -252 -16 -1088 0 -1340 44 -703 129 -1349 258 -1960 51
-244 227 -994 289 -1235 356 -1380 947 -2713 1731 -3903 258 -391 705 -1007
981 -1352 641 -801 1398 -1547 2210 -2177 207 -161 716 -530 978 -711 1264
-869 2687 -1514 4173 -1891 216 -55 837 -201 1088 -255 1030 -225 2182 -328
3189 -286 780 33 1543 129 2259 286 251 54 872 200 1088 255 1486 377 2909
1022 4173 1891 262 181 771 550 978 711 936 727 1780 1588 2492 2542 656 879
1039 1482 1426 2240 433 850 768 1733 1004 2650 62 241 238 991 289 1235 211
1003 307 2118 266 3098 -31 736 -122 1480 -266 2162 -51 244 -227 994 -289
1235 -356 1380 -947 2713 -1731 3903 -258 391 -705 1007 -981 1352 -641 801
-1398 1547 -2210 2177 -207 161 -716 530 -978 711 -1264 869 -2687 1514 -4173
1891 -216 55 -837 201 -1088 255 -1037 227 -2196 329 -3224 285z m1240 -4509
c767 -53 1374 -145 1825 -275 1098 -318 2132 -797 3079 -1425 583 -387 1293
-1023 1870 -1675 451 -509 708 -863 1041 -1430 75 -129 85 -152 85 -194 l0
-49 -112 -27 c-62 -15 -144 -29 -183 -32 l-70 -5 -18 70 c-32 124 -115 271
-289 512 -211 293 -276 357 -573 570 -233 167 -322 221 -436 264 -35 13 -242
65 -459 116 -366 86 -403 93 -500 93 -97 0 -134 -7 -500 -93 -217 -51 -424
-103 -459 -116 -114 -43 -203 -97 -436 -264 -297 -213 -362 -277 -573 -570
-174 -241 -257 -388 -289 -511 l-17 -69 -49 0 c-27 0 -167 28 -311 62 -373 87
-357 88 -866 -32 -217 -51 -424 -103 -459 -116 -114 -43 -203 -97 -436 -264
-298 -214 -362 -278 -570 -567 -257 -357 -256 -357 -382 -892 -128 -541 -128
-481 0 -1022 126 -535 125 -535 382 -892 208 -290 271 -353 575 -571 330 -237
370 -255 781 -351 l156 -36 6 -157 c8 -196 18 -259 112 -662 128 -550 146
-608 239 -805 71 -148 111 -211 304 -480 213 -295 253 -345 404 -490 118 -114
410 -337 668 -509 117 -78 322 -177 466 -226 126 -41 814 -206 989 -236 135
-24 395 -24 530 0 175 30 863 195 989 236 144 49 349 148 466 226 258 172 550
395 668 509 151 145 191 194 405 491 184 256 237 340 308 489 88 187 107 251
234 795 94 403 104 466 112 663 3 86 7 157 8 157 2 0 89 20 194 45 105 25 216
45 246 45 l55 0 0 -267 c0 -914 -116 -1909 -292 -2517 -320 -1106 -786 -2116
-1423 -3081 -194 -295 -401 -559 -721 -920 -577 -652 -1287 -1288 -1870 -1675
-947 -628 -1982 -1107 -3079 -1425 -457 -132 -1067 -224 -1845 -277 -247 -17
-1193 -17 -1440 0 -778 53 -1388 145 -1845 277 -1097 318 -2132 797 -3079
1425 -583 387 -1293 1023 -1870 1675 -451 509 -708 863 -1041 1430 -75 129
-85 152 -85 194 l0 49 112 27 c62 15 145 29 183 32 l70 5 18 -70 c32 -124 115
-271 289 -512 211 -293 276 -357 573 -570 233 -167 322 -221 436 -264 35 -13
242 -65 459 -116 527 -124 473 -124 1000 0 217 51 424 103 459 116 114 43 203
97 436 264 297 213 362 277 573 570 174 241 257 388 289 511 l17 69 49 0 c27
0 167 -28 311 -62 373 -87 357 -88 866 32 217 51 424 103 459 116 114 43 203
97 436 264 298 214 362 278 570 567 257 357 256 357 382 892 128 541 128 481
0 1022 -126 535 -125 535 -382 892 -208 290 -271 353 -575 571 -330 237 -370
255 -781 351 l-156 36 -6 157 c-8 196 -18 259 -112 662 -127 544 -146 608
-234 795 -71 149 -124 233 -308 489 -214 297 -254 346 -405 491 -118 114 -410
337 -668 509 -117 78 -322 177 -466 226 -126 41 -814 206 -989 236 -135 24
-395 24 -530 0 -175 -30 -863 -195 -989 -236 -144 -49 -349 -148 -466 -226
-258 -172 -550 -395 -668 -509 -151 -145 -191 -195 -404 -490 -193 -269 -233
-332 -304 -480 -93 -197 -111 -255 -239 -805 -94 -403 -104 -466 -112 -662 -3
-87 -7 -158 -8 -158 -2 0 -89 -20 -194 -45 -105 -25 -216 -45 -246 -45 l-55 0
0 268 c0 913 116 1908 292 2516 320 1106 786 2116 1423 3081 194 295 401 559
721 920 577 652 1287 1288 1870 1675 947 628 1982 1107 3079 1425 522 151
1207 245 2110 289 144 7 1046 -3 1195 -14z"/>
</g>
</svg>
